<svg id="visual" viewBox="0 0 675 1800" width="675" height="1800" xmlns="http://www.w3.org/2000/svg" xmlns:xlink="http://www.w3.org/1999/xlink" version="1.1"><rect x="0" y="0" width="675" height="1800" fill="#000000"></rect><path d="M556 0L411 0L411 78L467 78L467 157L411 157L411 235L565 235L565 313L521 313L521 391L543 391L543 470L344 470L344 548L441 548L441 626L666 626L666 704L544 704L544 783L457 783L457 861L646 861L646 939L599 939L599 1017L452 1017L452 1096L478 1096L478 1174L435 1174L435 1252L364 1252L364 1330L394 1330L394 1409L342 1409L342 1487L605 1487L605 1565L519 1565L519 1643L616 1643L616 1722L370 1722L370 1800L0 1800L0 1722L0 1722L0 1643L0 1643L0 1565L0 1565L0 1487L0 1487L0 1409L0 1409L0 1330L0 1330L0 1252L0 1252L0 1174L0 1174L0 1096L0 1096L0 1017L0 1017L0 939L0 939L0 861L0 861L0 783L0 783L0 704L0 704L0 626L0 626L0 548L0 548L0 470L0 470L0 391L0 391L0 313L0 313L0 235L0 235L0 157L0 157L0 78L0 78L0 0L0 0Z" fill="#09e570"></path><path d="M326 0L393 0L393 78L358 78L358 157L252 157L252 235L439 235L439 313L327 313L327 391L442 391L442 470L356 470L356 548L288 548L288 626L493 626L493 704L412 704L412 783L374 783L374 861L262 861L262 939L492 939L492 1017L450 1017L450 1096L243 1096L243 1174L445 1174L445 1252L395 1252L395 1330L173 1330L173 1409L444 1409L444 1487L472 1487L472 1565L413 1565L413 1643L204 1643L204 1722L426 1722L426 1800L0 1800L0 1722L0 1722L0 1643L0 1643L0 1565L0 1565L0 1487L0 1487L0 1409L0 1409L0 1330L0 1330L0 1252L0 1252L0 1174L0 1174L0 1096L0 1096L0 1017L0 1017L0 939L0 939L0 861L0 861L0 783L0 783L0 704L0 704L0 626L0 626L0 548L0 548L0 470L0 470L0 391L0 391L0 313L0 313L0 235L0 235L0 157L0 157L0 78L0 78L0 0L0 0Z" fill="#008241"></path><path d="M78 0L103 0L103 78L2 78L2 157L25 157L25 235L303 235L303 313L295 313L295 391L309 391L309 470L251 470L251 548L258 548L258 626L117 626L117 704L140 704L140 783L49 783L49 861L58 861L58 939L337 939L337 1017L332 1017L332 1096L325 1096L325 1174L141 1174L141 1252L167 1252L167 1330L257 1330L257 1409L6 1409L6 1487L249 1487L249 1565L262 1565L262 1643L32 1643L32 1722L195 1722L195 1800L0 1800L0 1722L0 1722L0 1643L0 1643L0 1565L0 1565L0 1487L0 1487L0 1409L0 1409L0 1330L0 1330L0 1252L0 1252L0 1174L0 1174L0 1096L0 1096L0 1017L0 1017L0 939L0 939L0 861L0 861L0 783L0 783L0 704L0 704L0 626L0 626L0 548L0 548L0 470L0 470L0 391L0 391L0 313L0 313L0 235L0 235L0 157L0 157L0 78L0 78L0 0L0 0Z" fill="#002c14"></path></svg>